<svg width="400" height="250" viewBox="0 0 400 250" xmlns="http://www.w3.org/2000/svg">
  <defs>
    <linearGradient id="serverBg" x1="0%" y1="0%" x2="100%" y2="100%">
      <stop offset="0%" style="stop-color:#1e293b"/>
      <stop offset="100%" style="stop-color:#0f172a"/>
    </linearGradient>
  </defs>
  
  <!-- Background -->
  <rect width="400" height="250" fill="url(#serverBg)"/>
  
  <!-- Server racks -->
  <rect x="50" y="50" width="80" height="150" fill="#374151" stroke="#4b5563" stroke-width="1"/>
  <rect x="150" y="50" width="80" height="150" fill="#374151" stroke="#4b5563" stroke-width="1"/>
  <rect x="250" y="50" width="80" height="150" fill="#374151" stroke="#4b5563" stroke-width="1"/>
  
  <!-- Server units -->
  <!-- Rack 1 -->
  <rect x="55" y="60" width="70" height="20" fill="#1f2937" stroke="#64748b"/>
  <circle cx="65" cy="70" r="3" fill="#10b981"/>
  <circle cx="75" cy="70" r="3" fill="#10b981"/>
  <text x="85" y="72" fill="#e2e8f0" font-size="6">AUTH-01</text>
  
  <rect x="55" y="85" width="70" height="20" fill="#1f2937" stroke="#64748b"/>
  <circle cx="65" cy="95" r="3" fill="#f59e0b"/>
  <circle cx="75" cy="95" r="3" fill="#10b981"/>
  <text x="85" y="97" fill="#e2e8f0" font-size="6">FILTER-02</text>
  
  <rect x="55" y="110" width="70" height="20" fill="#1f2937" stroke="#64748b"/>
  <circle cx="65" cy="120" r="3" fill="#10b981"/>
  <circle cx="75" cy="120" r="3" fill="#10b981"/>
  <text x="85" y="122" fill="#e2e8f0" font-size="6">SCAN-03</text>
  
  <!-- Rack 2 -->
  <rect x="155" y="60" width="70" height="20" fill="#1f2937" stroke="#64748b"/>
  <circle cx="165" cy="70" r="3" fill="#dc2626"/>
  <circle cx="175" cy="70" r="3" fill="#f59e0b"/>
  <text x="185" y="72" fill="#e2e8f0" font-size="6">THREAT-01</text>
  
  <rect x="155" y="85" width="70" height="20" fill="#1f2937" stroke="#64748b"/>
  <circle cx="165" cy="95" r="3" fill="#10b981"/>
  <circle cx="175" cy="95" r="3" fill="#10b981"/>
  <text x="185" y="97" fill="#e2e8f0" font-size="6">DB-MAIN</text>
  
  <rect x="155" y="110" width="70" height="20" fill="#1f2937" stroke="#64748b"/>
  <circle cx="165" cy="120" r="3" fill="#10b981"/>
  <circle cx="175" cy="120" r="3" fill="#10b981"/>
  <text x="185" y="122" fill="#e2e8f0" font-size="6">BACKUP</text>
  
  <!-- Rack 3 -->
  <rect x="255" y="60" width="70" height="20" fill="#1f2937" stroke="#64748b"/>
  <circle cx="265" cy="70" r="3" fill="#10b981"/>
  <circle cx="275" cy="70" r="3" fill="#10b981"/>
  <text x="285" y="72" fill="#e2e8f0" font-size="6">WEB-01</text>
  
  <rect x="255" y="85" width="70" height="20" fill="#1f2937" stroke="#64748b"/>
  <circle cx="265" cy="95" r="3" fill="#10b981"/>
  <circle cx="275" cy="95" r="3" fill="#10b981"/>
  <text x="285" y="97" fill="#e2e8f0" font-size="6">API-SRV</text>
  
  <rect x="255" y="110" width="70" height="20" fill="#1f2937" stroke="#64748b"/>
  <circle cx="265" cy="120" r="3" fill="#8b5cf6"/>
  <circle cx="275" cy="120" r="3" fill="#10b981"/>
  <text x="285" y="122" fill="#e2e8f0" font-size="6">AI-ENGINE</text>
  
  <!-- Network connections -->
  <g opacity="0.7">
    <path d="M130 120 L150 120" stroke="#00bfff" stroke-width="2"/>
    <path d="M230 120 L250 120" stroke="#00bfff" stroke-width="2"/>
    <circle cx="140" cy="120" r="2" fill="#00bfff"/>
    <circle cx="240" cy="120" r="2" fill="#00bfff"/>
  </g>
  
  <!-- Monitoring station -->
  <rect x="350" y="80" width="40" height="30" fill="#1f2937" stroke="#374151"/>
  <rect x="355" y="85" width="30" height="20" fill="#111827"/>
  <text x="370" y="97" text-anchor="middle" fill="#00bfff" font-size="6">MONITOR</text>
  
  <!-- Status indicators -->
  <text x="50" y="220" fill="#10b981" font-size="8">System Status: OPERATIONAL</text>
  <text x="50" y="235" fill="#e2e8f0" font-size="7">Uptime: 99.97% | Threats Blocked: 2,847</text>
  
  <!-- Data flow indicators -->
  <g opacity="0.5">
    <circle cx="100" cy="40" r="2" fill="#00bfff"/>
    <circle cx="120" cy="35" r="1" fill="#8b5cf6"/>
    <circle cx="140" cy="45" r="1.5" fill="#10b981"/>
    <circle cx="200" cy="40" r="1" fill="#f59e0b"/>
    <circle cx="220" cy="35" r="2" fill="#00bfff"/>
    <circle cx="280" cy="45" r="1" fill="#8b5cf6"/>
  </g>
</svg>